<svg xmlns="http://www.w3.org/2000/svg" xmlns:xlink="http://www.w3.org/1999/xlink" width="559" zoomAndPan="magnify" viewBox="0 0 419.25 297.75" height="396" preserveAspectRatio="xMidYMid meet" version="1.0"><defs><g/></defs><g fill="#ffffff" fill-opacity="1"><g transform="translate(29.769293, 151.618302)"><g><path d="M 14.609375 -14.546875 L 10.71875 -10.359375 L 10.71875 0 L 3.234375 0 L 3.234375 -36.28125 L 10.71875 -36.28125 L 10.71875 -19.828125 L 14 -24.34375 L 23.25 -36.28125 L 32.4375 -36.28125 L 19.5625 -20.15625 L 32.8125 0 L 23.921875 0 Z M 14.609375 -14.546875 "/></g></g></g><g fill="#ffffff" fill-opacity="1"><g transform="translate(62.160032, 151.618302)"><g><path d="M 23.71875 -7.46875 L 10.609375 -7.46875 L 8.125 0 L 0.171875 0 L 13.6875 -36.28125 L 20.609375 -36.28125 L 34.1875 0 L 26.234375 0 Z M 12.640625 -13.53125 L 21.703125 -13.53125 L 17.140625 -27.109375 Z M 12.640625 -13.53125 "/></g></g></g><g fill="#ffffff" fill-opacity="1"><g transform="translate(96.494214, 151.618302)"><g><path d="M 30.703125 -36.28125 L 30.703125 -12.390625 C 30.703125 -8.410156 29.457031 -5.265625 26.96875 -2.953125 C 24.488281 -0.648438 21.097656 0.5 16.796875 0.5 C 12.554688 0.5 9.191406 -0.617188 6.703125 -2.859375 C 4.210938 -5.109375 2.941406 -8.191406 2.890625 -12.109375 L 2.890625 -36.28125 L 10.359375 -36.28125 L 10.359375 -12.328125 C 10.359375 -9.953125 10.925781 -8.21875 12.0625 -7.125 C 13.207031 -6.039062 14.785156 -5.5 16.796875 -5.5 C 20.992188 -5.5 23.128906 -7.710938 23.203125 -12.140625 L 23.203125 -36.28125 Z M 30.703125 -36.28125 "/></g></g></g><g fill="#ffffff" fill-opacity="1"><g transform="translate(130.080918, 151.618302)"><g><path d="M 23.71875 -7.46875 L 10.609375 -7.46875 L 8.125 0 L 0.171875 0 L 13.6875 -36.28125 L 20.609375 -36.28125 L 34.1875 0 L 26.234375 0 Z M 12.640625 -13.53125 L 21.703125 -13.53125 L 17.140625 -27.109375 Z M 12.640625 -13.53125 "/></g></g></g><g fill="#ffffff" fill-opacity="1"><g transform="translate(164.4151, 151.618302)"><g><path d="M 32.734375 0 L 25.265625 0 L 10.71875 -23.875 L 10.71875 0 L 3.234375 0 L 3.234375 -36.28125 L 10.71875 -36.28125 L 25.296875 -12.359375 L 25.296875 -36.28125 L 32.734375 -36.28125 Z M 32.734375 0 "/></g></g></g><g fill="#ffffff" fill-opacity="1"><g transform="translate(200.443567, 151.618302)"><g/></g></g><g fill="#ffffff" fill-opacity="1"><g transform="translate(213.150703, 151.618302)"><g><path d="M 16.640625 -9 L 24.875 -36.28125 L 33.1875 -36.28125 L 20.5625 0 L 12.765625 0 L 0.171875 -36.28125 L 8.46875 -36.28125 Z M 16.640625 -9 "/></g></g></g><g fill="#ffffff" fill-opacity="1"><g transform="translate(246.513169, 151.618302)"><g><path d="M 11.1875 0 L 3.71875 0 L 3.71875 -36.28125 L 11.1875 -36.28125 Z M 11.1875 0 "/></g></g></g><g fill="#ffffff" fill-opacity="1"><g transform="translate(261.387987, 151.618302)"><g><path d="M 25.0625 -15.71875 L 10.71875 -15.71875 L 10.71875 -6 L 27.5625 -6 L 27.5625 0 L 3.234375 0 L 3.234375 -36.28125 L 27.515625 -36.28125 L 27.515625 -30.21875 L 10.71875 -30.21875 L 10.71875 -21.578125 L 25.0625 -21.578125 Z M 25.0625 -15.71875 "/></g></g></g><g fill="#ffffff" fill-opacity="1"><g transform="translate(290.091164, 151.618302)"><g><path d="M 11.1875 0 L 3.71875 0 L 3.71875 -36.28125 L 11.1875 -36.28125 Z M 11.1875 0 "/></g></g></g><g fill="#ffffff" fill-opacity="1"><g transform="translate(304.965982, 151.618302)"><g><path d="M 16.671875 -13.28125 L 10.71875 -13.28125 L 10.71875 0 L 3.234375 0 L 3.234375 -36.28125 L 16.71875 -36.28125 C 21.007812 -36.28125 24.316406 -35.320312 26.640625 -33.40625 C 28.960938 -31.5 30.125 -28.800781 30.125 -25.3125 C 30.125 -22.84375 29.585938 -20.78125 28.515625 -19.125 C 27.441406 -17.46875 25.816406 -16.148438 23.640625 -15.171875 L 31.5 -0.34375 L 31.5 0 L 23.46875 0 Z M 10.71875 -19.34375 L 16.75 -19.34375 C 18.625 -19.34375 20.078125 -19.816406 21.109375 -20.765625 C 22.140625 -21.722656 22.65625 -23.039062 22.65625 -24.71875 C 22.65625 -26.425781 22.164062 -27.769531 21.1875 -28.75 C 20.21875 -29.726562 18.726562 -30.21875 16.71875 -30.21875 L 10.71875 -30.21875 Z M 10.71875 -19.34375 "/></g></g></g><g fill="#ffffff" fill-opacity="1"><g transform="translate(337.531137, 151.618302)"><g><path d="M 23.71875 -7.46875 L 10.609375 -7.46875 L 8.125 0 L 0.171875 0 L 13.6875 -36.28125 L 20.609375 -36.28125 L 34.1875 0 L 26.234375 0 Z M 12.640625 -13.53125 L 21.703125 -13.53125 L 17.140625 -27.109375 Z M 12.640625 -13.53125 "/></g></g></g><g fill="#ffc552" fill-opacity="1"><g transform="translate(29.795465, 192.333447)"><g><path d="M 1.875 0 L 1.875 -16.109375 L 6.421875 -16.109375 C 7.816406 -16.109375 9.050781 -15.796875 10.125 -15.171875 C 11.207031 -14.554688 12.039062 -13.675781 12.625 -12.53125 C 13.207031 -11.382812 13.503906 -10.070312 13.515625 -8.59375 L 13.515625 -7.5625 C 13.515625 -6.039062 13.222656 -4.707031 12.640625 -3.5625 C 12.054688 -2.425781 11.21875 -1.550781 10.125 -0.9375 C 9.039062 -0.320312 7.773438 -0.0078125 6.328125 0 Z M 4 -14.359375 L 4 -1.734375 L 6.234375 -1.734375 C 7.867188 -1.734375 9.140625 -2.242188 10.046875 -3.265625 C 10.960938 -4.285156 11.421875 -5.734375 11.421875 -7.609375 L 11.421875 -8.546875 C 11.421875 -10.378906 10.988281 -11.800781 10.125 -12.8125 C 9.269531 -13.832031 8.050781 -14.347656 6.46875 -14.359375 Z M 4 -14.359375 "/></g></g></g><g fill="#ffc552" fill-opacity="1"><g transform="translate(44.647322, 192.333447)"><g><path d="M 6.515625 0.21875 C 4.890625 0.21875 3.566406 -0.3125 2.546875 -1.375 C 1.535156 -2.4375 1.03125 -3.863281 1.03125 -5.65625 L 1.03125 -6.03125 C 1.03125 -7.21875 1.253906 -8.273438 1.703125 -9.203125 C 2.160156 -10.140625 2.796875 -10.867188 3.609375 -11.390625 C 4.421875 -11.921875 5.304688 -12.1875 6.265625 -12.1875 C 7.816406 -12.1875 9.023438 -11.671875 9.890625 -10.640625 C 10.753906 -9.617188 11.1875 -8.15625 11.1875 -6.25 L 11.1875 -5.40625 L 3.078125 -5.40625 C 3.109375 -4.21875 3.453125 -3.257812 4.109375 -2.53125 C 4.765625 -1.8125 5.601562 -1.453125 6.625 -1.453125 C 7.34375 -1.453125 7.953125 -1.597656 8.453125 -1.890625 C 8.960938 -2.179688 9.40625 -2.570312 9.78125 -3.0625 L 11.03125 -2.09375 C 10.03125 -0.550781 8.523438 0.21875 6.515625 0.21875 Z M 6.265625 -10.515625 C 5.429688 -10.515625 4.734375 -10.210938 4.171875 -9.609375 C 3.617188 -9.003906 3.273438 -8.160156 3.140625 -7.078125 L 9.140625 -7.078125 L 9.140625 -7.234375 C 9.078125 -8.273438 8.796875 -9.082031 8.296875 -9.65625 C 7.796875 -10.226562 7.117188 -10.515625 6.265625 -10.515625 Z M 6.265625 -10.515625 "/></g></g></g><g fill="#ffc552" fill-opacity="1"><g transform="translate(56.64603, 192.333447)"><g><path d="M 8.515625 -3.171875 C 8.515625 -3.722656 8.304688 -4.148438 7.890625 -4.453125 C 7.472656 -4.765625 6.742188 -5.03125 5.703125 -5.25 C 4.671875 -5.476562 3.847656 -5.742188 3.234375 -6.046875 C 2.628906 -6.359375 2.179688 -6.726562 1.890625 -7.15625 C 1.597656 -7.582031 1.453125 -8.09375 1.453125 -8.6875 C 1.453125 -9.664062 1.867188 -10.492188 2.703125 -11.171875 C 3.535156 -11.847656 4.597656 -12.1875 5.890625 -12.1875 C 7.242188 -12.1875 8.34375 -11.835938 9.1875 -11.140625 C 10.03125 -10.441406 10.453125 -9.546875 10.453125 -8.453125 L 8.390625 -8.453125 C 8.390625 -9.015625 8.148438 -9.5 7.671875 -9.90625 C 7.203125 -10.3125 6.609375 -10.515625 5.890625 -10.515625 C 5.140625 -10.515625 4.550781 -10.347656 4.125 -10.015625 C 3.707031 -9.691406 3.5 -9.269531 3.5 -8.75 C 3.5 -8.257812 3.691406 -7.882812 4.078125 -7.625 C 4.472656 -7.375 5.179688 -7.132812 6.203125 -6.90625 C 7.234375 -6.6875 8.0625 -6.414062 8.6875 -6.09375 C 9.320312 -5.78125 9.789062 -5.398438 10.09375 -4.953125 C 10.40625 -4.503906 10.5625 -3.957031 10.5625 -3.3125 C 10.5625 -2.25 10.132812 -1.394531 9.28125 -0.75 C 8.425781 -0.101562 7.316406 0.21875 5.953125 0.21875 C 4.992188 0.21875 4.144531 0.0507812 3.40625 -0.28125 C 2.664062 -0.625 2.085938 -1.097656 1.671875 -1.703125 C 1.253906 -2.316406 1.046875 -2.976562 1.046875 -3.6875 L 3.09375 -3.6875 C 3.132812 -3 3.410156 -2.453125 3.921875 -2.046875 C 4.429688 -1.648438 5.109375 -1.453125 5.953125 -1.453125 C 6.722656 -1.453125 7.34375 -1.609375 7.8125 -1.921875 C 8.28125 -2.234375 8.515625 -2.648438 8.515625 -3.171875 Z M 8.515625 -3.171875 "/></g></g></g><g fill="#ffc552" fill-opacity="1"><g transform="translate(68.324035, 192.333447)"><g><path d="M 6.515625 0.21875 C 4.890625 0.21875 3.566406 -0.3125 2.546875 -1.375 C 1.535156 -2.4375 1.03125 -3.863281 1.03125 -5.65625 L 1.03125 -6.03125 C 1.03125 -7.21875 1.253906 -8.273438 1.703125 -9.203125 C 2.160156 -10.140625 2.796875 -10.867188 3.609375 -11.390625 C 4.421875 -11.921875 5.304688 -12.1875 6.265625 -12.1875 C 7.816406 -12.1875 9.023438 -11.671875 9.890625 -10.640625 C 10.753906 -9.617188 11.1875 -8.15625 11.1875 -6.25 L 11.1875 -5.40625 L 3.078125 -5.40625 C 3.109375 -4.21875 3.453125 -3.257812 4.109375 -2.53125 C 4.765625 -1.8125 5.601562 -1.453125 6.625 -1.453125 C 7.34375 -1.453125 7.953125 -1.597656 8.453125 -1.890625 C 8.960938 -2.179688 9.40625 -2.570312 9.78125 -3.0625 L 11.03125 -2.09375 C 10.03125 -0.550781 8.523438 0.21875 6.515625 0.21875 Z M 6.265625 -10.515625 C 5.429688 -10.515625 4.734375 -10.210938 4.171875 -9.609375 C 3.617188 -9.003906 3.273438 -8.160156 3.140625 -7.078125 L 9.140625 -7.078125 L 9.140625 -7.234375 C 9.078125 -8.273438 8.796875 -9.082031 8.296875 -9.65625 C 7.796875 -10.226562 7.117188 -10.515625 6.265625 -10.515625 Z M 6.265625 -10.515625 "/></g></g></g><g fill="#ffc552" fill-opacity="1"><g transform="translate(80.322744, 192.333447)"><g><path d="M 3.484375 -11.96875 L 3.546875 -10.46875 C 4.460938 -11.613281 5.660156 -12.1875 7.140625 -12.1875 C 9.671875 -12.1875 10.945312 -10.757812 10.96875 -7.90625 L 10.96875 0 L 8.921875 0 L 8.921875 -7.921875 C 8.910156 -8.785156 8.710938 -9.421875 8.328125 -9.828125 C 7.941406 -10.242188 7.335938 -10.453125 6.515625 -10.453125 C 5.847656 -10.453125 5.265625 -10.273438 4.765625 -9.921875 C 4.265625 -9.566406 3.875 -9.101562 3.59375 -8.53125 L 3.59375 0 L 1.546875 0 L 1.546875 -11.96875 Z M 3.484375 -11.96875 "/></g></g></g><g fill="#ffc552" fill-opacity="1"><g transform="translate(92.819094, 192.333447)"><g><path d="M 5.5 -2.78125 L 8.46875 -11.96875 L 10.546875 -11.96875 L 6.265625 0 L 4.703125 0 L 0.359375 -11.96875 L 2.453125 -11.96875 Z M 5.5 -2.78125 "/></g></g></g><g fill="#ffc552" fill-opacity="1"><g transform="translate(103.789342, 192.333447)"><g><path d="M 1 -6.09375 C 1 -7.269531 1.226562 -8.328125 1.6875 -9.265625 C 2.15625 -10.203125 2.800781 -10.921875 3.625 -11.421875 C 4.445312 -11.929688 5.382812 -12.1875 6.4375 -12.1875 C 8.070312 -12.1875 9.390625 -11.625 10.390625 -10.5 C 11.398438 -9.375 11.90625 -7.875 11.90625 -6 L 11.90625 -5.859375 C 11.90625 -4.691406 11.679688 -3.644531 11.234375 -2.71875 C 10.785156 -1.789062 10.144531 -1.066406 9.3125 -0.546875 C 8.488281 -0.0351562 7.535156 0.21875 6.453125 0.21875 C 4.835938 0.21875 3.523438 -0.34375 2.515625 -1.46875 C 1.503906 -2.59375 1 -4.085938 1 -5.953125 Z M 3.0625 -5.859375 C 3.0625 -4.523438 3.367188 -3.457031 3.984375 -2.65625 C 4.597656 -1.851562 5.421875 -1.453125 6.453125 -1.453125 C 7.492188 -1.453125 8.320312 -1.859375 8.9375 -2.671875 C 9.550781 -3.484375 9.859375 -4.625 9.859375 -6.09375 C 9.859375 -7.40625 9.546875 -8.46875 8.921875 -9.28125 C 8.296875 -10.101562 7.46875 -10.515625 6.4375 -10.515625 C 5.425781 -10.515625 4.609375 -10.109375 3.984375 -9.296875 C 3.367188 -8.492188 3.0625 -7.347656 3.0625 -5.859375 Z M 3.0625 -5.859375 "/></g></g></g><g fill="#ffc552" fill-opacity="1"><g transform="translate(116.705923, 192.333447)"><g><path d="M 3.765625 0 L 1.71875 0 L 1.71875 -17 L 3.765625 -17 Z M 3.765625 0 "/></g></g></g><g fill="#ffc552" fill-opacity="1"><g transform="translate(122.202106, 192.333447)"><g><path d="M 5.5 -2.78125 L 8.46875 -11.96875 L 10.546875 -11.96875 L 6.265625 0 L 4.703125 0 L 0.359375 -11.96875 L 2.453125 -11.96875 Z M 5.5 -2.78125 "/></g></g></g><g fill="#ffc552" fill-opacity="1"><g transform="translate(133.172353, 192.333447)"><g><path d="M 6.515625 0.21875 C 4.890625 0.21875 3.566406 -0.3125 2.546875 -1.375 C 1.535156 -2.4375 1.03125 -3.863281 1.03125 -5.65625 L 1.03125 -6.03125 C 1.03125 -7.21875 1.253906 -8.273438 1.703125 -9.203125 C 2.160156 -10.140625 2.796875 -10.867188 3.609375 -11.390625 C 4.421875 -11.921875 5.304688 -12.1875 6.265625 -12.1875 C 7.816406 -12.1875 9.023438 -11.671875 9.890625 -10.640625 C 10.753906 -9.617188 11.1875 -8.15625 11.1875 -6.25 L 11.1875 -5.40625 L 3.078125 -5.40625 C 3.109375 -4.21875 3.453125 -3.257812 4.109375 -2.53125 C 4.765625 -1.8125 5.601562 -1.453125 6.625 -1.453125 C 7.34375 -1.453125 7.953125 -1.597656 8.453125 -1.890625 C 8.960938 -2.179688 9.40625 -2.570312 9.78125 -3.0625 L 11.03125 -2.09375 C 10.03125 -0.550781 8.523438 0.21875 6.515625 0.21875 Z M 6.265625 -10.515625 C 5.429688 -10.515625 4.734375 -10.210938 4.171875 -9.609375 C 3.617188 -9.003906 3.273438 -8.160156 3.140625 -7.078125 L 9.140625 -7.078125 L 9.140625 -7.234375 C 9.078125 -8.273438 8.796875 -9.082031 8.296875 -9.65625 C 7.796875 -10.226562 7.117188 -10.515625 6.265625 -10.515625 Z M 6.265625 -10.515625 "/></g></g></g><g fill="#ffc552" fill-opacity="1"><g transform="translate(145.171062, 192.333447)"><g><path d="M 1.046875 -6.078125 C 1.046875 -7.921875 1.476562 -9.398438 2.34375 -10.515625 C 3.21875 -11.628906 4.363281 -12.1875 5.78125 -12.1875 C 7.175781 -12.1875 8.285156 -11.707031 9.109375 -10.75 L 9.109375 -17 L 11.15625 -17 L 11.15625 0 L 9.265625 0 L 9.171875 -1.28125 C 8.347656 -0.28125 7.207031 0.21875 5.75 0.21875 C 4.363281 0.21875 3.234375 -0.347656 2.359375 -1.484375 C 1.484375 -2.617188 1.046875 -4.097656 1.046875 -5.921875 Z M 3.09375 -5.859375 C 3.09375 -4.492188 3.375 -3.425781 3.9375 -2.65625 C 4.5 -1.894531 5.273438 -1.515625 6.265625 -1.515625 C 7.554688 -1.515625 8.503906 -2.097656 9.109375 -3.265625 L 9.109375 -8.765625 C 8.492188 -9.890625 7.550781 -10.453125 6.28125 -10.453125 C 5.28125 -10.453125 4.5 -10.0625 3.9375 -9.28125 C 3.375 -8.507812 3.09375 -7.367188 3.09375 -5.859375 Z M 3.09375 -5.859375 "/></g></g></g><g fill="#ffc552" fill-opacity="1"><g transform="translate(157.94388, 192.333447)"><g><path d="M 1 -6.09375 C 1 -7.269531 1.226562 -8.328125 1.6875 -9.265625 C 2.15625 -10.203125 2.800781 -10.921875 3.625 -11.421875 C 4.445312 -11.929688 5.382812 -12.1875 6.4375 -12.1875 C 8.070312 -12.1875 9.390625 -11.625 10.390625 -10.5 C 11.398438 -9.375 11.90625 -7.875 11.90625 -6 L 11.90625 -5.859375 C 11.90625 -4.691406 11.679688 -3.644531 11.234375 -2.71875 C 10.785156 -1.789062 10.144531 -1.066406 9.3125 -0.546875 C 8.488281 -0.0351562 7.535156 0.21875 6.453125 0.21875 C 4.835938 0.21875 3.523438 -0.34375 2.515625 -1.46875 C 1.503906 -2.59375 1 -4.085938 1 -5.953125 Z M 3.0625 -5.859375 C 3.0625 -4.523438 3.367188 -3.457031 3.984375 -2.65625 C 4.597656 -1.851562 5.421875 -1.453125 6.453125 -1.453125 C 7.492188 -1.453125 8.320312 -1.859375 8.9375 -2.671875 C 9.550781 -3.484375 9.859375 -4.625 9.859375 -6.09375 C 9.859375 -7.40625 9.546875 -8.46875 8.921875 -9.28125 C 8.296875 -10.101562 7.46875 -10.515625 6.4375 -10.515625 C 5.425781 -10.515625 4.609375 -10.109375 3.984375 -9.296875 C 3.367188 -8.492188 3.0625 -7.347656 3.0625 -5.859375 Z M 3.0625 -5.859375 "/></g></g></g><g fill="#ffc552" fill-opacity="1"><g transform="translate(170.860462, 192.333447)"><g><path d="M 7.328125 -10.140625 C 7.023438 -10.179688 6.691406 -10.203125 6.328125 -10.203125 C 4.984375 -10.203125 4.070312 -9.632812 3.59375 -8.5 L 3.59375 0 L 1.546875 0 L 1.546875 -11.96875 L 3.546875 -11.96875 L 3.578125 -10.59375 C 4.242188 -11.65625 5.191406 -12.1875 6.421875 -12.1875 C 6.828125 -12.1875 7.128906 -12.132812 7.328125 -12.03125 Z M 7.328125 -10.140625 "/></g></g></g><g fill="#ffc552" fill-opacity="1"><g transform="translate(178.524153, 192.333447)"><g/></g></g><g fill="#ffc552" fill-opacity="1"><g transform="translate(184.130922, 192.333447)"><g><path d="M 10.75 -7.109375 L 4 -7.109375 L 4 0 L 1.875 0 L 1.875 -16.109375 L 11.84375 -16.109375 L 11.84375 -14.359375 L 4 -14.359375 L 4 -8.84375 L 10.75 -8.84375 Z M 10.75 -7.109375 "/></g></g></g><g fill="#ffc552" fill-opacity="1"><g transform="translate(196.64939, 192.333447)"><g><path d="M 7.328125 -10.140625 C 7.023438 -10.179688 6.691406 -10.203125 6.328125 -10.203125 C 4.984375 -10.203125 4.070312 -9.632812 3.59375 -8.5 L 3.59375 0 L 1.546875 0 L 1.546875 -11.96875 L 3.546875 -11.96875 L 3.578125 -10.59375 C 4.242188 -11.65625 5.191406 -12.1875 6.421875 -12.1875 C 6.828125 -12.1875 7.128906 -12.132812 7.328125 -12.03125 Z M 7.328125 -10.140625 "/></g></g></g><g fill="#ffc552" fill-opacity="1"><g transform="translate(204.313081, 192.333447)"><g><path d="M 1 -6.09375 C 1 -7.269531 1.226562 -8.328125 1.6875 -9.265625 C 2.15625 -10.203125 2.800781 -10.921875 3.625 -11.421875 C 4.445312 -11.929688 5.382812 -12.1875 6.4375 -12.1875 C 8.070312 -12.1875 9.390625 -11.625 10.390625 -10.5 C 11.398438 -9.375 11.90625 -7.875 11.90625 -6 L 11.90625 -5.859375 C 11.90625 -4.691406 11.679688 -3.644531 11.234375 -2.71875 C 10.785156 -1.789062 10.144531 -1.066406 9.3125 -0.546875 C 8.488281 -0.0351562 7.535156 0.21875 6.453125 0.21875 C 4.835938 0.21875 3.523438 -0.34375 2.515625 -1.46875 C 1.503906 -2.59375 1 -4.085938 1 -5.953125 Z M 3.0625 -5.859375 C 3.0625 -4.523438 3.367188 -3.457031 3.984375 -2.65625 C 4.597656 -1.851562 5.421875 -1.453125 6.453125 -1.453125 C 7.492188 -1.453125 8.320312 -1.859375 8.9375 -2.671875 C 9.550781 -3.484375 9.859375 -4.625 9.859375 -6.09375 C 9.859375 -7.40625 9.546875 -8.46875 8.921875 -9.28125 C 8.296875 -10.101562 7.46875 -10.515625 6.4375 -10.515625 C 5.425781 -10.515625 4.609375 -10.109375 3.984375 -9.296875 C 3.367188 -8.492188 3.0625 -7.347656 3.0625 -5.859375 Z M 3.0625 -5.859375 "/></g></g></g><g fill="#ffc552" fill-opacity="1"><g transform="translate(217.229663, 192.333447)"><g><path d="M 3.484375 -11.96875 L 3.546875 -10.46875 C 4.460938 -11.613281 5.660156 -12.1875 7.140625 -12.1875 C 9.671875 -12.1875 10.945312 -10.757812 10.96875 -7.90625 L 10.96875 0 L 8.921875 0 L 8.921875 -7.921875 C 8.910156 -8.785156 8.710938 -9.421875 8.328125 -9.828125 C 7.941406 -10.242188 7.335938 -10.453125 6.515625 -10.453125 C 5.847656 -10.453125 5.265625 -10.273438 4.765625 -9.921875 C 4.265625 -9.566406 3.875 -9.101562 3.59375 -8.53125 L 3.59375 0 L 1.546875 0 L 1.546875 -11.96875 Z M 3.484375 -11.96875 "/></g></g></g><g fill="#ffc552" fill-opacity="1"><g transform="translate(229.726014, 192.333447)"><g><path d="M 4.328125 -14.875 L 4.328125 -11.96875 L 6.5625 -11.96875 L 6.5625 -10.390625 L 4.328125 -10.390625 L 4.328125 -2.96875 C 4.328125 -2.488281 4.425781 -2.128906 4.625 -1.890625 C 4.820312 -1.648438 5.160156 -1.53125 5.640625 -1.53125 C 5.878906 -1.53125 6.203125 -1.570312 6.609375 -1.65625 L 6.609375 0 C 6.078125 0.144531 5.554688 0.21875 5.046875 0.21875 C 4.128906 0.21875 3.4375 -0.0546875 2.96875 -0.609375 C 2.507812 -1.160156 2.28125 -1.945312 2.28125 -2.96875 L 2.28125 -10.390625 L 0.09375 -10.390625 L 0.09375 -11.96875 L 2.28125 -11.96875 L 2.28125 -14.875 Z M 4.328125 -14.875 "/></g></g></g><g fill="#ffc552" fill-opacity="1"><g transform="translate(237.124295, 192.333447)"><g><path d="M 5.8125 -6 L 0.40625 -6 L 0.40625 -7.671875 L 5.8125 -7.671875 Z M 5.8125 -6 "/></g></g></g><g fill="#ffc552" fill-opacity="1"><g transform="translate(243.372471, 192.333447)"><g><path d="M 10.96875 -7.4375 L 4 -7.4375 L 4 -1.734375 L 12.109375 -1.734375 L 12.109375 0 L 1.875 0 L 1.875 -16.109375 L 11.984375 -16.109375 L 11.984375 -14.359375 L 4 -14.359375 L 4 -9.1875 L 10.96875 -9.1875 Z M 10.96875 -7.4375 "/></g></g></g><g fill="#ffc552" fill-opacity="1"><g transform="translate(256.244818, 192.333447)"><g><path d="M 3.484375 -11.96875 L 3.546875 -10.46875 C 4.460938 -11.613281 5.660156 -12.1875 7.140625 -12.1875 C 9.671875 -12.1875 10.945312 -10.757812 10.96875 -7.90625 L 10.96875 0 L 8.921875 0 L 8.921875 -7.921875 C 8.910156 -8.785156 8.710938 -9.421875 8.328125 -9.828125 C 7.941406 -10.242188 7.335938 -10.453125 6.515625 -10.453125 C 5.847656 -10.453125 5.265625 -10.273438 4.765625 -9.921875 C 4.265625 -9.566406 3.875 -9.101562 3.59375 -8.53125 L 3.59375 0 L 1.546875 0 L 1.546875 -11.96875 Z M 3.484375 -11.96875 "/></g></g></g><g fill="#ffc552" fill-opacity="1"><g transform="translate(268.741168, 192.333447)"><g><path d="M 1.046875 -6.078125 C 1.046875 -7.921875 1.476562 -9.398438 2.34375 -10.515625 C 3.21875 -11.628906 4.363281 -12.1875 5.78125 -12.1875 C 7.175781 -12.1875 8.285156 -11.707031 9.109375 -10.75 L 9.109375 -17 L 11.15625 -17 L 11.15625 0 L 9.265625 0 L 9.171875 -1.28125 C 8.347656 -0.28125 7.207031 0.21875 5.75 0.21875 C 4.363281 0.21875 3.234375 -0.347656 2.359375 -1.484375 C 1.484375 -2.617188 1.046875 -4.097656 1.046875 -5.921875 Z M 3.09375 -5.859375 C 3.09375 -4.492188 3.375 -3.425781 3.9375 -2.65625 C 4.5 -1.894531 5.273438 -1.515625 6.265625 -1.515625 C 7.554688 -1.515625 8.503906 -2.097656 9.109375 -3.265625 L 9.109375 -8.765625 C 8.492188 -9.890625 7.550781 -10.453125 6.28125 -10.453125 C 5.28125 -10.453125 4.5 -10.0625 3.9375 -9.28125 C 3.375 -8.507812 3.09375 -7.367188 3.09375 -5.859375 Z M 3.09375 -5.859375 "/></g></g></g></svg>